<svg width="130" height="115" viewBox="0 0 130 115" fill="none" xmlns="http://www.w3.org/2000/svg">
<path d="M94.6605 115H34.5586C12.6214 115 0 101.946 0 79.2568V35.7432C0 13.0541 12.6214 0 34.5586 0H94.6605C116.598 0 129.219 13.0541 129.219 35.7432V79.2568C129.219 101.946 116.598 115 94.6605 115ZM34.5586 9.32432C17.3695 9.32432 9.01529 17.9649 9.01529 35.7432V79.2568C9.01529 97.0351 17.3695 105.676 34.5586 105.676H94.6605C111.85 105.676 120.204 97.0351 120.204 79.2568V35.7432C120.204 17.9649 111.85 9.32432 94.6605 9.32432H34.5586Z" fill="#292D32"/>
<path d="M28.5482 87.0272C26.084 87.0272 24.0405 84.9137 24.0405 82.365V32.6353C24.0405 30.0867 26.084 27.9731 28.5482 27.9731C31.0123 27.9731 33.0558 30.0867 33.0558 32.6353V82.365C33.0558 84.9137 31.0123 87.0272 28.5482 87.0272Z" fill="#292D32"/>
<path d="M46.5789 62.1623C44.1148 62.1623 42.0713 60.0488 42.0713 57.5002V32.6353C42.0713 30.0867 44.1148 27.9731 46.5789 27.9731C49.0431 27.9731 51.0866 30.0867 51.0866 32.6353V57.5002C51.0866 60.0488 49.0431 62.1623 46.5789 62.1623Z" fill="#292D32"/>
<path d="M46.5789 87.0271C44.1148 87.0271 42.0713 84.9136 42.0713 82.3649V76.1487C42.0713 73.6001 44.1148 71.4866 46.5789 71.4866C49.0431 71.4866 51.0866 73.6001 51.0866 76.1487V82.3649C51.0866 84.9136 49.0431 87.0271 46.5789 87.0271Z" fill="#292D32"/>
<path d="M82.64 43.5137C80.1758 43.5137 78.1323 41.4002 78.1323 38.8515V32.6353C78.1323 30.0867 80.1758 27.9731 82.64 27.9731C85.1041 27.9731 87.1476 30.0867 87.1476 32.6353V38.8515C87.1476 41.4002 85.1041 43.5137 82.64 43.5137Z" fill="#292D32"/>
<path d="M64.6097 87.0272C62.1455 87.0272 60.1021 84.9137 60.1021 82.365V32.6353C60.1021 30.0867 62.1455 27.9731 64.6097 27.9731C67.0739 27.9731 69.1173 30.0867 69.1173 32.6353V82.365C69.1173 84.9137 67.0739 87.0272 64.6097 87.0272Z" fill="#292D32"/>
<path d="M82.64 87.0268C80.1758 87.0268 78.1323 84.9133 78.1323 82.3647V57.4998C78.1323 54.9512 80.1758 52.8376 82.64 52.8376C85.1041 52.8376 87.1476 54.9512 87.1476 57.4998V82.3647C87.1476 84.9133 85.1041 87.0268 82.64 87.0268Z" fill="#292D32"/>
<path d="M100.671 87.0272C98.2066 87.0272 96.1631 84.9137 96.1631 82.365V32.6353C96.1631 30.0867 98.2066 27.9731 100.671 27.9731C103.135 27.9731 105.178 30.0867 105.178 32.6353V82.365C105.178 84.9137 103.135 87.0272 100.671 87.0272Z" fill="#292D32"/>
</svg>
