<svg width="119" height="115" viewBox="0 0 119 115" fill="none" xmlns="http://www.w3.org/2000/svg">
<path d="M42.6321 88.2559C42.082 88.2559 41.5869 88.149 41.0368 87.935C39.4965 87.3466 38.5063 85.849 38.5063 84.2443V52.1513C38.5063 49.9583 40.3767 48.1396 42.6321 48.1396C44.8875 48.1396 46.7579 49.9583 46.7579 52.1513V74.5629L50.7186 70.7117C52.3139 69.1606 54.9544 69.1606 56.5497 70.7117C58.145 72.2629 58.145 74.8303 56.5497 76.3815L45.5477 87.0792C44.7775 87.828 43.6773 88.2559 42.6321 88.2559Z" fill="#292D32"/>
<path d="M42.6307 88.2557C41.5855 88.2557 40.5403 87.8812 39.7151 87.0789L28.7131 76.3812C27.1178 74.8301 27.1178 72.2626 28.7131 70.7115C30.3084 69.1603 32.9489 69.1603 34.5442 70.7115L45.5462 81.4091C47.1415 82.9603 47.1415 85.5277 45.5462 87.0789C44.7211 87.8812 43.6759 88.2557 42.6307 88.2557Z" fill="#292D32"/>
<path d="M75.6392 115H42.633C12.7624 115 0 102.591 0 73.5465V41.4535C0 12.4093 12.7624 0 42.633 0H70.1382C72.3936 0 74.2639 1.8186 74.2639 4.01163C74.2639 6.20465 72.3936 8.02326 70.1382 8.02326H42.633C17.2732 8.02326 8.25155 16.7953 8.25155 41.4535V73.5465C8.25155 98.2047 17.2732 106.977 42.633 106.977H75.6392C100.999 106.977 110.021 98.2047 110.021 73.5465V46.8023C110.021 44.6093 111.891 42.7907 114.146 42.7907C116.402 42.7907 118.272 44.6093 118.272 46.8023V73.5465C118.272 102.591 105.51 115 75.6392 115Z" fill="#292D32"/>
<path d="M114.147 50.8142H92.1431C73.3296 50.8142 66.0132 43.7002 66.0132 25.4071V4.01179C66.0132 2.40714 67.0034 0.909463 68.5437 0.321091C70.0839 -0.320769 71.8443 0.0536493 73.0545 1.17691L117.063 43.9676C118.218 45.0909 118.603 46.856 117.943 48.3537C117.283 49.8514 115.798 50.8142 114.147 50.8142ZM74.2647 13.6932V25.4071C74.2647 39.2071 77.9504 42.7909 92.1431 42.7909H104.19L74.2647 13.6932Z" fill="#292D32"/>
</svg>
