<svg width="139" height="125" viewBox="0 0 139 125" fill="none" xmlns="http://www.w3.org/2000/svg">
<path d="M108.167 34.6665C107.78 34.609 107.329 34.609 106.942 34.6665C98.0428 34.379 90.9492 27.8823 90.9492 19.8332C90.9492 11.6117 98.3652 5 107.587 5C116.809 5 124.225 11.6692 124.225 19.8332C124.16 27.8823 117.066 34.379 108.167 34.6665Z" stroke="#292D32" stroke-width="9.33926" stroke-linecap="round" stroke-linejoin="round"/>
<path d="M101.524 76.5211C110.358 77.8434 120.096 76.4636 126.931 72.3816C136.024 66.9772 136.024 58.1233 126.931 52.7189C120.031 48.637 110.165 47.2571 101.33 48.637" stroke="#292D32" stroke-width="9.33926" stroke-linecap="round" stroke-linejoin="round"/>
<path d="M30.5802 34.6665C30.9671 34.609 31.4186 34.609 31.8055 34.6665C40.7047 34.379 47.7983 27.8823 47.7983 19.8332C47.7983 11.6117 40.3822 5 31.1606 5C21.939 5 14.5229 11.6692 14.5229 19.8332C14.5874 27.8823 21.681 34.379 30.5802 34.6665Z" stroke="#292D32" stroke-width="9.33926" stroke-linecap="round" stroke-linejoin="round"/>
<path d="M37.2274 76.5211C28.3927 77.8434 18.6551 76.4636 11.8195 72.3816C2.72683 66.9772 2.72683 58.1233 11.8195 52.7189C18.7196 48.637 28.5861 47.2571 37.4209 48.637" stroke="#292D32" stroke-width="9.33926" stroke-linecap="round" stroke-linejoin="round"/>
<path d="M69.474 77.6139C69.0871 77.5564 68.6357 77.5564 68.2488 77.6139C59.3496 77.3264 52.2559 70.8297 52.2559 62.7807C52.2559 54.5592 59.672 47.9473 68.8936 47.9473C78.1153 47.9473 85.5313 54.6166 85.5313 62.7807C85.4668 70.8297 78.3732 77.3839 69.474 77.6139Z" stroke="#292D32" stroke-width="9.33926" stroke-linecap="round" stroke-linejoin="round"/>
<path d="M88.2445 95.7235C77.9911 89.6293 61.031 89.6293 50.7131 95.7235C41.6204 101.128 41.6204 109.982 50.7131 115.386C61.031 121.538 77.9266 121.538 88.2445 115.386" stroke="#292D32" stroke-width="9.33926" stroke-linecap="round" stroke-linejoin="round"/>
</svg>
