<svg width="125" height="115" viewBox="0 0 125 115" fill="none" xmlns="http://www.w3.org/2000/svg">
<path d="M39.0262 115C37.4074 115 35.7306 114.61 34.2273 113.829C30.9318 112.157 28.9083 108.812 28.9083 105.245V97.3297C11.4477 95.6016 0 83.2258 0 65.4992V32.0529C0 12.8769 13.3556 0 33.2446 0H91.0612C110.95 0 124.306 12.8769 124.306 32.0529V65.4992C124.306 84.6752 110.95 97.5521 91.0612 97.5521H69.2644L44.6343 113.384C42.9576 114.443 40.992 115 39.0262 115ZM33.2446 8.30583C18.3279 8.30583 8.6725 17.6151 8.6725 31.9971V65.444C8.6725 79.826 18.3279 89.1353 33.2446 89.1353C35.6151 89.1353 37.5808 91.0306 37.5808 93.3161V105.19C37.5808 105.914 38.0434 106.249 38.3324 106.416C38.6216 106.583 39.1998 106.75 39.8357 106.36L65.5641 89.8599C66.2579 89.414 67.1251 89.1353 67.9924 89.1353H91.1191C106.036 89.1353 115.691 79.826 115.691 65.444V31.9971C115.691 17.6151 106.036 8.30583 91.1191 8.30583H33.2446Z" fill="#292D32"/>
<path d="M62.1518 58.0852C59.7814 58.0852 57.8156 56.1898 57.8156 53.9043V52.7337C57.8156 46.2674 62.73 43.0899 64.5801 41.8635C66.7194 40.4699 67.4132 39.5223 67.4132 38.073C67.4132 35.2858 65.0427 33.0001 62.1518 33.0001C59.261 33.0001 56.8905 35.2858 56.8905 38.073C56.8905 40.3585 54.9248 42.2538 52.5543 42.2538C50.184 42.2538 48.2183 40.3585 48.2183 38.073C48.2183 30.659 54.4622 24.6384 62.1518 24.6384C69.8415 24.6384 76.0857 30.659 76.0857 38.073C76.0857 44.4278 71.2291 47.6052 69.4367 48.7759C67.1819 50.2252 66.4881 51.1729 66.4881 52.7337V53.9043C66.4881 56.2456 64.5223 58.0852 62.1518 58.0852Z" fill="#292D32"/>
<path d="M62.1531 71.9666C59.7248 71.9666 57.8169 70.0713 57.8169 67.7858C57.8169 65.5003 59.7827 63.605 62.1531 63.605C64.5236 63.605 66.4894 65.5003 66.4894 67.7858C66.4894 70.0713 64.5814 71.9666 62.1531 71.9666Z" fill="#292D32"/>
</svg>
